<?xml version="1.0" encoding="UTF-8" standalone="no"?><!DOCTYPE svg PUBLIC "-//W3C//DTD SVG 1.1//EN" "http://www.w3.org/Graphics/SVG/1.1/DTD/svg11.dtd">
<svg width="100%" height="100%" viewBox="0 0 500 500" version="1.1"
  xmlns="http://www.w3.org/2000/svg"
  xmlns:xlink="http://www.w3.org/1999/xlink" xml:space="preserve"
  xmlns:serif="http://www.serif.com/" style="fill-rule:evenodd;clip-rule:evenodd;stroke-linejoin:round;stroke-miterlimit:2;">
  <rect id="bone" x="0" y="0" width="500" height="500" style="fill:none;"/>
  <g id="bone1" serif:id="bone">
    <path d="M258.114,154.758c-13.979,-20.8 -5.374,-51.124 11.632,-68.53c12.792,-13.092 29.547,-18.304 43.754,-11.2c21.865,10.933 32.572,32.027 29.491,53.121l0.098,0.011c7.73,0.988 17.175,4.865 21.833,6.728c8.99,3.596 18.192,12.727 24.214,23.672c6.147,11.171 8.789,23.967 6.368,33.653c-1.657,6.627 -8.955,14.249 -20.42,19.982c-19.722,9.861 -51.744,16.794 -61.246,16.794c-2.335,0 -4.504,-0.721 -6.295,-1.953c-0.655,0.925 -1.522,1.978 -2.667,3.124c-1.129,1.128 -2.44,1.963 -3.839,2.502c-8.167,6.893 -28.856,24.452 -32.034,28.027c-11.807,13.283 -26.7,28.57 -39.3,45.143c-11.589,15.243 -21.353,31.523 -23.839,48.412c-0.894,6.077 -6.553,10.284 -12.629,9.39c-0.126,-0.019 -0.25,-0.039 -0.373,-0.062c3.523,3.719 7.76,10.414 8.069,11.134c5.907,13.783 8.96,27.194 5.999,42.001c-2.603,13.013 -8.146,21.687 -15.397,27.267c-10.357,7.97 -25.062,9.829 -42.877,6.266c-11.45,-2.29 -34.921,-18.795 -44.625,-35.037c-1.797,-3.007 -3.136,-6.014 -4.013,-8.96c-4.739,1.144 -9.753,1.777 -14.67,1.629c-11.585,-0.348 -22.557,-4.812 -29.698,-15.523c-8.931,-13.397 -12.717,-34.531 -8.96,-50.653c2.251,-9.657 7.127,-17.573 14.212,-22.312c7.216,-4.826 17.014,-6.857 29.856,-2.78c5.854,1.859 9.098,8.12 7.239,13.974c-1.858,5.854 -8.12,9.098 -13.973,7.239c-4.466,-1.418 -7.948,-1.653 -10.531,-0.073c-4.472,2.737 -5.675,8.968 -5.987,15.44c-0.45,9.324 1.936,19.73 6.662,26.82c2.795,4.191 7.315,5.486 11.849,5.622c6.172,0.186 12.568,-1.71 17.323,-4.088c1.289,-0.644 3.56,-2.451 3.56,-2.451c4.12,-3.13 9.853,-3.007 13.836,0.295c3.982,3.303 5.163,8.915 2.849,13.543c0,-0 -1.771,3.543 -2.657,5.315c-0.483,0.966 0.42,1.984 0.964,3.189c1.032,2.29 2.613,4.62 4.476,6.926c7.663,9.485 19.918,18.715 26.653,20.062c10.288,2.057 18.957,2.522 24.938,-2.081c3.639,-2.8 5.841,-7.464 7.147,-13.994c1.985,-9.925 -0.422,-18.868 -4.304,-28.086l-1.798,-2.379c-4.768,-1.255 -8.288,-5.6 -8.288,-10.76c-0,-5.3 2.345,-8.038 4.067,-9.571c2.687,-2.392 6.03,-3.532 10.111,-2.724c0.27,0.054 0.56,0.124 0.867,0.213c-1.587,-2.252 -2.348,-5.093 -1.916,-8.031c2.422,-16.455 10.138,-32.609 20.421,-47.887c14.251,-21.174 33.44,-40.718 48.103,-57.214c4.388,-4.937 33.303,-30.008 38.961,-34.085c5.822,-4.194 10.999,-2.23 13.6,-0.623c2.03,-2.708 5.266,-4.462 8.908,-4.462c7.973,0 34.744,-6.17 51.293,-14.445c3.684,-1.842 8.131,-5.407 8.905,-6.039c0.981,-5.012 -1.28,-11.291 -4.399,-16.96c-3.361,-6.109 -7.963,-11.73 -12.981,-13.737c-2.669,-1.068 -7.273,-3.039 -11.951,-4.354c-1.997,-0.562 -5.313,-0.94 -6.124,-1.027c-3.251,1.668 -8.61,4.722 -8.61,4.722c-4.408,2.507 -9.954,1.717 -13.487,-1.922c-3.532,-3.638 -4.158,-9.205 -1.52,-13.537c-0,-0 2.168,-3.538 3.095,-5.391c7.301,-14.603 1.105,-31.3 -14.513,-39.109c-6.023,-3.011 -12.458,1.297 -17.881,6.848c-5.457,5.586 -9.79,13.21 -11.607,21.105c-1.563,6.795 -1.306,13.865 2.615,19.584c2.356,3.437 2.518,7.732 0.798,11.224c0.928,1.311 1.574,2.896 1.879,4.795c0.224,1.401 0.466,4.43 -1.641,8.091c-2.171,3.773 -13.96,17.004 -16.241,19.285c-10.546,10.546 -18.564,19.982 -27.1,32.176c-9.141,13.058 -72.868,76.513 -104.381,99.639c-6.53,4.792 -11.984,7.968 -15.62,9.267c-4.055,1.45 -7.352,1.301 -9.647,0.688c-5.934,-1.584 -9.465,-7.688 -7.88,-13.622c1.296,-4.853 5.614,-8.099 10.391,-8.252c2.101,-1.333 13.068,-8.399 21.891,-15.732c31.837,-26.458 79.401,-73.876 87.013,-84.751c9.323,-13.319 18.076,-23.631 29.596,-35.15c1.377,-1.378 8.478,-9.71 11.432,-13.188c0.238,-0.758 0.556,-1.49 0.951,-2.183Zm-65.154,216.84c0.004,-0.078 0.007,-0.157 0.009,-0.238c0.002,-0.08 0.003,-0.161 0.003,-0.243l-0.012,0.481Zm78.217,-200.722c-0.177,0.052 -0.355,0.105 -0.533,0.157l-0.486,0.117c0.481,-0.098 0.986,-0.243 1.514,-0.447l-0.495,0.173Z" style="fill:#f3de8a"/>
  </g>
</svg>