<?xml version="1.0" encoding="UTF-8" standalone="no"?>
<!DOCTYPE svg PUBLIC "-//W3C//DTD SVG 1.1//EN" "http://www.w3.org/Graphics/SVG/1.1/DTD/svg11.dtd">
<svg width="100%" height="100%" viewBox="0 0 501 501" version="1.1"
    xmlns="http://www.w3.org/2000/svg"
    xmlns:xlink="http://www.w3.org/1999/xlink" xml:space="preserve"
    xmlns:serif="http://www.serif.com/" style="fill-rule:evenodd;clip-rule:evenodd;stroke-linejoin:round;stroke-miterlimit:2;">
    <g transform="matrix(1,0,0,1,-4935,-831)">
        <g id="Artboard9" transform="matrix(1,0,0,1,535.61,831.814)">
            <rect x="4400" y="0" width="500" height="500" style="fill:none;"/>
            <g transform="matrix(1,0,0,1,-535.61,-831.814)">
                <path d="M5062.01,1141.09C5060.81,1140.96 5059.48,1145.75 5058.51,1146.96C5053.85,1152.79 5049.15,1158.7 5044.06,1164.36C5029.8,1180.21 5017.03,1197.39 5003.96,1214.19C4998.33,1221.43 4989.48,1229.29 4985.38,1237.49" style="fill:none;stroke:#D7E8BA;stroke-width:7.93px;stroke-linecap:round;stroke-miterlimit:1.5;"/>
            </g>
            <g transform="matrix(1,0,0,1,-535.61,-831.814)">
                <path d="M4986.99,1241.94C4984.59,1246.65 4988,1255.07 4989.51,1259.61C4995.91,1278.8 5010.82,1286.24 5029.32,1290.86" style="fill:none;stroke:#D7E8BA;stroke-width:7.93px;stroke-linecap:round;stroke-miterlimit:1.5;"/>
            </g>
            <g transform="matrix(1,0,0,1,-535.61,-831.814)">
                <path d="M5035.18,1287.48C5035.28,1286.18 5038.99,1283.1 5039.93,1282.02C5045.15,1276 5050.08,1269.76 5055.27,1263.74C5070.02,1246.62 5085.07,1228.95 5098.32,1210.66C5105.36,1200.93 5113.44,1192.08 5120.73,1182.64C5122.87,1179.87 5125.05,1177.14 5127.22,1174.39C5127.31,1174.27 5130.94,1169.19 5128.99,1171.14" style="fill:none;stroke:#D7E8BA;stroke-width:7.93px;stroke-linecap:round;stroke-miterlimit:1.5;"/>
            </g>
            <g transform="matrix(1,0,0,1,-535.61,-831.814)">
                <path d="M5133.83,1171.93C5135.16,1170.37 5138.11,1171.59 5140.49,1171.14C5147.38,1169.85 5153.84,1167.54 5160.83,1166.42C5184.65,1162.61 5207.83,1155.69 5231.9,1153.15C5243.19,1151.97 5254.7,1150.07 5265.81,1147.85C5270.04,1147 5274.29,1145.89 5278.49,1144.9C5278.95,1144.79 5286.01,1142.76 5283.51,1144.01" style="fill:none;stroke:#D7E8BA;stroke-width:7.93px;stroke-linecap:round;stroke-miterlimit:1.5;"/>
            </g>
            <g transform="matrix(1,0,0,1,-535.61,-831.814)">
                <path d="M5062.59,1136.28C5063.92,1129.89 5059.03,1120.72 5058.22,1114.23C5056.65,1101.71 5052.19,1089.39 5051.14,1076.78C5050.23,1065.87 5049.2,1054.93 5047.89,1044.05C5046.68,1033.96 5044.59,1024.05 5043.47,1013.97C5043.24,1011.9 5042.99,1009.79 5042.59,1007.78C5042.43,1007 5040.85,1006.27 5041.41,1005.71C5041.53,1005.59 5042.57,1007.34 5043.47,1006.89C5044.47,1006.39 5043.47,997.622 5043.47,998.636" style="fill:none;stroke:#D7E8BA;stroke-width:7.93px;stroke-linecap:round;stroke-miterlimit:1.5;"/>
            </g>
            <g transform="matrix(1,0,0,1,-535.61,-831.814)">
                <path d="M5047.56,995.411C5047.7,994.376 5053.17,992.828 5054.09,992.444C5061.27,989.451 5069.64,987.683 5077.38,988.905C5102.65,992.896 5131.92,1008.49 5146.39,1030.19" style="fill:none;stroke:#D7E8BA;stroke-width:7.93px;stroke-linecap:round;stroke-miterlimit:1.5;"/>
            </g>
            <g transform="matrix(1,0,0,1,-535.61,-831.814)">
                <path d="M5142.69,1025.34C5147.94,1019.77 5168.53,1024.74 5174.69,1026.94C5204.93,1037.74 5219.3,1066.96 5230.43,1094.77" style="fill:none;stroke:#D7E8BA;stroke-width:7.93px;stroke-linecap:round;stroke-miterlimit:1.5;"/>
            </g>
            <g transform="matrix(1,0,0,1,-535.61,-831.814)">
                <path d="M5227.55,1084.24C5228.24,1083.06 5232.62,1084.04 5233.67,1084.15C5241.46,1085.02 5248.96,1085 5256.67,1087.1C5280.02,1093.47 5285.69,1103.85 5295.89,1124.26C5299.43,1131.34 5304.15,1141.54 5304.15,1149.62" style="fill:none;stroke:#D7E8BA;stroke-width:7.93px;stroke-linecap:round;stroke-miterlimit:1.5;"/>
            </g>
            <g transform="matrix(1,0,0,1,-535.61,-831.814)">
                <path d="M5058.07,985.938C5052.72,977.508 5048.36,967.76 5051.73,957.648C5055.51,946.31 5072.44,932.55 5085.05,937.596C5090.42,939.745 5093.79,943.449 5097.14,947.917" style="fill:none;stroke:#D7E8BA;stroke-width:7.93px;stroke-linecap:round;stroke-miterlimit:1.5;"/>
            </g>
            <g transform="matrix(1,0,0,1,-535.61,-831.814)">
                <path d="M5096.41,944.931C5097.95,938.932 5105.26,936.99 5109.82,934.057C5123.63,925.178 5138.85,918.817 5154.05,929.339C5160.57,933.855 5166.66,947.47 5166.14,955.289C5165.93,958.469 5163.19,961.108 5163.19,964.135" style="fill:none;stroke:#D7E8BA;stroke-width:7.93px;stroke-linecap:round;stroke-miterlimit:1.5;"/>
            </g>
            <g transform="matrix(1,0,0,1,-535.61,-831.814)">
                <path d="M5166.55,960.154C5170.61,963.449 5176.78,962.525 5180.89,967.084C5184.43,971.019 5189.74,976.823 5192.09,981.533C5198.28,993.915 5193.23,1009.51 5185.9,1020.16C5182.63,1024.92 5177.83,1028.13 5174.69,1032.84" style="fill:none;stroke:#D7E8BA;stroke-width:7.93px;stroke-linecap:round;stroke-miterlimit:1.5;"/>
            </g>
            <g transform="matrix(1,0,0,1,-535.61,-831.814)">
                <path d="M5168.31,941.724C5165.41,941.724 5166.43,937.793 5168.8,937.006C5174.69,935.043 5180.48,933.071 5186.49,931.403C5199.62,927.756 5210.03,935.149 5215.68,946.442" style="fill:none;stroke:#D7E8BA;stroke-width:7.93px;stroke-linecap:round;stroke-miterlimit:1.5;"/>
            </g>
            <g transform="matrix(1,0,0,1,-535.61,-831.814)">
                <path d="M5215.32,943.365C5215.65,941.24 5219.93,939.284 5221.58,938.186C5228.68,933.455 5237.15,930.096 5245.76,933.173C5265.13,940.091 5280.44,961.523 5274.66,982.713C5272.63,990.133 5262.85,997.168 5256.67,1001.29" style="fill:none;stroke:#D7E8BA;stroke-width:7.93px;stroke-linecap:round;stroke-miterlimit:1.5;"/>
            </g>
            <g transform="matrix(1,0,0,1,-535.61,-831.814)">
                <path d="M5269.49,989.384C5270.32,989.973 5271.35,988.871 5272,989.2C5276.88,991.638 5283.13,998.68 5286.16,1003.06C5289.34,1007.66 5289.7,1014.18 5289.7,1019.57C5289.7,1043.35 5274.37,1057.61 5251.36,1061.45" style="fill:none;stroke:#D7E8BA;stroke-width:7.93px;stroke-linecap:round;stroke-miterlimit:1.5;"/>
            </g>
            <g transform="matrix(1,0,0,1,-535.61,-831.814)">
                <path d="M5250.85,1060.06C5252.47,1059.43 5254.28,1067.8 5253.13,1069.41C5249.76,1074.14 5244.11,1076.42 5239.57,1079.73C5236.94,1081.64 5233.81,1084.74 5230.43,1084.74" style="fill:none;stroke:#D7E8BA;stroke-width:7.93px;stroke-linecap:round;stroke-miterlimit:1.5;"/>
            </g>
            <g transform="matrix(1,0,0,1,-535.61,-831.814)">
                <path d="M5210.95,994.471C5210.92,994.475 5214.3,990.675 5217.16,990.675C5221.71,990.675 5226.37,993.866 5229.25,997.457C5235.02,1004.68 5230.86,1017 5223.35,1020.75C5210.95,1026.95 5199.82,1006.83 5209.78,996.867" style="fill:none;stroke:#D7E8BA;stroke-width:7.93px;stroke-linecap:round;stroke-miterlimit:1.5;"/>
            </g>
            <g transform="matrix(1,0,0,1,-535.61,-831.814)">
                <path d="M5103.1,989.421C5102.4,986.741 5100.56,982.308 5103.04,978.584C5107.24,972.285 5119.62,970.114 5124.86,976.225C5128.66,980.663 5130.57,988.207 5126.33,992.444C5125.3,993.478 5124.41,995.982 5122.79,995.982" style="fill:none;stroke:#D7E8BA;stroke-width:7.93px;stroke-linecap:round;stroke-miterlimit:1.5;"/>
            </g>
            <g transform="matrix(1,0,0,1,-535.61,-831.814)">
                <path d="M5292.72,1012.9C5297.85,1010.3 5304.67,1017.17 5308.28,1019.57C5311.87,1021.97 5316.48,1023.42 5319.48,1026.65C5330.41,1038.42 5324.53,1056.38 5316.83,1067.93" style="fill:none;stroke:#D7E8BA;stroke-width:7.93px;stroke-linecap:round;stroke-miterlimit:1.5;"/>
            </g>
            <g transform="matrix(1,0,0,1,-535.61,-831.814)">
                <path d="M5317.98,1065.49C5332.74,1069.36 5334.95,1097.01 5325.67,1107.45C5321.46,1112.18 5314.02,1112.61 5309.75,1116.88" style="fill:none;stroke:#D7E8BA;stroke-width:7.93px;stroke-linecap:round;stroke-miterlimit:1.5;"/>
            </g>
            <g transform="matrix(1,0,0,1,-535.61,-831.814)">
                <path d="M5314.47,1114.25C5315.98,1113.44 5313.36,1116 5313.88,1118.06C5315.04,1122.71 5316.97,1123.72 5314.47,1129.56C5310.8,1138.13 5306.23,1137.8 5300.9,1143.13" style="fill:none;stroke:#D7E8BA;stroke-width:7.93px;stroke-linecap:round;stroke-miterlimit:1.5;"/>
            </g>
            <g transform="matrix(1,0,0,1,-535.61,-831.814)">
                <path d="M5268.31,1085.37C5264.41,1076.02 5281.11,1070.72 5286.16,1079.14C5287.48,1081.34 5288.72,1087.46 5286.16,1089.16C5285.09,1089.88 5280.56,1091.41 5280.56,1092.7" style="fill:none;stroke:#D7E8BA;stroke-width:7.93px;stroke-linecap:round;stroke-miterlimit:1.5;"/>
            </g>
            <g transform="matrix(1,0,0,1,-535.61,-831.814)">
                <path d="M5062.2,1139.64C5058.45,1146.65 5063.05,1149.73 5067.95,1154.63C5074.95,1161.63 5085.09,1164.11 5093.6,1169.08C5096.7,1170.89 5099.66,1173.34 5102.74,1175.27C5106.13,1177.38 5117.59,1184.83 5121.32,1182.35" style="fill:none;stroke:#D7E8BA;stroke-width:7.93px;stroke-linecap:round;stroke-miterlimit:1.5;"/>
            </g>
            <g transform="matrix(1,0,0,1,-535.61,-831.814)">
                <path d="M5061.85,1137.45C5068.26,1134.57 5073.65,1131.17 5081.22,1131.92C5086.03,1132.4 5089.95,1137.77 5094.19,1139.88C5105.48,1145.53 5115.69,1154.19 5125.45,1162C5129.87,1165.54 5135.82,1168.3 5138.42,1173.5" style="fill:none;stroke:#D7E8BA;stroke-width:7.93px;stroke-linecap:round;stroke-miterlimit:1.5;"/>
            </g>
            <g transform="matrix(1,0,0,1,-535.61,-831.814)">
                <path d="M5133.63,1172.52C5133.98,1174.35 5136.28,1175.49 5136.65,1177.34C5138.63,1187.24 5144.39,1199.47 5153.46,1205.05C5158.72,1208.29 5165.53,1207.89 5170.57,1211.25" style="fill:none;stroke:#D7E8BA;stroke-width:7.93px;stroke-linecap:round;stroke-miterlimit:1.5;"/>
            </g>
            <g transform="matrix(1,0,0,1,-535.61,-831.814)">
                <path d="M5130.31,1177.29C5124.56,1177.89 5127.51,1199.34 5127.51,1203.28C5127.51,1207.84 5128.78,1213.28 5127.51,1217.73C5125.07,1226.29 5118.2,1235.61 5113.06,1242.8" style="fill:none;stroke:#D7E8BA;stroke-width:7.93px;stroke-linecap:round;stroke-miterlimit:1.5;"/>
            </g>
            <g transform="matrix(1,0,0,1,-535.61,-831.814)">
                <path d="M5138.35,1044.99C5137.94,1044.89 5138.13,1045.49 5138.13,1045.82" style="fill:none;stroke:#D7E8BA;stroke-width:7.93px;stroke-linecap:round;stroke-miterlimit:1.5;"/>
            </g>
            <g transform="matrix(1,0,0,1,-535.61,-831.814)">
                <path d="M5132.22,1063.69C5131.72,1063.89 5132,1064.1 5131.64,1064.1" style="fill:none;stroke:#D7E8BA;stroke-width:7.93px;stroke-linecap:round;stroke-miterlimit:1.5;"/>
            </g>
            <g transform="matrix(1,0,0,1,-535.61,-831.814)">
                <path d="M5122.06,1089.01C5121.59,1089.5 5121.32,1089.65 5121.32,1090.35" style="fill:none;stroke:#D7E8BA;stroke-width:7.93px;stroke-linecap:round;stroke-miterlimit:1.5;"/>
            </g>
            <g transform="matrix(1,0,0,1,-535.61,-831.814)">
                <path d="M5103.13,1119.85C5103.1,1119.85 5103.07,1119.84 5103.04,1119.83" style="fill:none;stroke:#D7E8BA;stroke-width:7.93px;stroke-linecap:round;stroke-miterlimit:1.5;"/>
            </g>
            <g transform="matrix(1,0,0,1,-535.61,-831.814)">
                <path d="M5113.09,1103.81C5113.08,1103.84 5113.07,1103.88 5113.06,1103.91" style="fill:none;stroke:#D7E8BA;stroke-width:7.93px;stroke-linecap:round;stroke-miterlimit:1.5;"/>
            </g>
            <g transform="matrix(1,0,0,1,-535.61,-831.814)">
                <path d="M5222.24,1105.1C5222.07,1105.08 5222.17,1105.07 5222.17,1105.38" style="fill:none;stroke:#D7E8BA;stroke-width:7.93px;stroke-linecap:round;stroke-miterlimit:1.5;"/>
            </g>
            <g transform="matrix(1,0,0,1,-535.61,-831.814)">
                <path d="M5203.18,1117.5C5203.39,1117.45 5203.3,1117.51 5203.3,1117.18" style="fill:none;stroke:#D7E8BA;stroke-width:7.93px;stroke-linecap:round;stroke-miterlimit:1.5;"/>
            </g>
            <g transform="matrix(1,0,0,1,-535.61,-831.814)">
                <path d="M5170.64,1134.64C5170.17,1134.56 5170.27,1134.45 5170.27,1134.87" style="fill:none;stroke:#D7E8BA;stroke-width:7.93px;stroke-linecap:round;stroke-miterlimit:1.5;"/>
            </g>
            <g transform="matrix(1,0,0,1,-535.61,-831.814)">
                <path d="M5134.8,1151.86C5134.47,1152.04 5134.51,1151.89 5134.3,1151.68" style="fill:none;stroke:#D7E8BA;stroke-width:7.93px;stroke-linecap:round;stroke-miterlimit:1.5;"/>
            </g>
            <g transform="matrix(1,0,0,1,-535.61,-831.814)">
                <path d="M5055.91,1176.71C5054.4,1176.87 5055.04,1175.27 5056.15,1175.27" style="fill:none;stroke:#D7E8BA;stroke-width:7.93px;stroke-linecap:round;stroke-miterlimit:1.5;"/>
            </g>
            <g transform="matrix(1,0,0,1,-535.61,-831.814)">
                <path d="M5076.38,1188.29C5075.68,1188.11 5075.77,1188.54 5075.32,1188.54" style="fill:none;stroke:#D7E8BA;stroke-width:7.93px;stroke-linecap:round;stroke-miterlimit:1.5;"/>
            </g>
            <g transform="matrix(1,0,0,1,-535.61,-831.814)">
                <path d="M5090.7,1199.76C5091.09,1199.74 5090.89,1199.69 5091.24,1200.04" style="fill:none;stroke:#D7E8BA;stroke-width:7.93px;stroke-linecap:round;stroke-miterlimit:1.5;"/>
            </g>
            <g transform="matrix(1,0,0,1,-535.61,-831.814)">
                <path d="M5049.63,1200.19C5049.64,1200.11 5049.66,1199.91 5049.66,1200.04" style="fill:none;stroke:#D7E8BA;stroke-width:7.93px;stroke-linecap:round;stroke-miterlimit:1.5;"/>
            </g>
            <g transform="matrix(1,0,0,1,-535.61,-831.814)">
                <path d="M5071.38,1213.53C5071.51,1213.25 5071.48,1213.03 5071.48,1212.72" style="fill:none;stroke:#D7E8BA;stroke-width:7.93px;stroke-linecap:round;stroke-miterlimit:1.5;"/>
            </g>
            <g transform="matrix(1,0,0,1,-535.61,-831.814)">
                <path d="M5026.12,1211.62C5025.17,1211.41 5026.37,1212.52 5026.37,1212.72" style="fill:none;stroke:#D7E8BA;stroke-width:7.93px;stroke-linecap:round;stroke-miterlimit:1.5;"/>
            </g>
            <g transform="matrix(1,0,0,1,-535.61,-831.814)">
                <path d="M5044,1227.5C5044.02,1227.49 5044.04,1227.48 5044.06,1227.46" style="fill:none;stroke:#D7E8BA;stroke-width:7.93px;stroke-linecap:round;stroke-miterlimit:1.5;"/>
            </g>
            <g transform="matrix(1,0,0,1,-535.61,-831.814)">
                <path d="M5061.23,1237.16C5061.49,1237.53 5061.32,1237.79 5061.75,1237.79" style="fill:none;stroke:#D7E8BA;stroke-width:7.93px;stroke-linecap:round;stroke-miterlimit:1.5;"/>
            </g>
            <g transform="matrix(1,0,0,1,-535.61,-831.814)">
                <path d="M5014.33,1238.26C5014.27,1238.77 5014.28,1238.53 5014.28,1238.96" style="fill:none;stroke:#D7E8BA;stroke-width:7.93px;stroke-linecap:round;stroke-miterlimit:1.5;"/>
            </g>
            <g transform="matrix(1,0,0,1,-535.61,-831.814)">
                <path d="M5039.36,1251.91C5039.3,1252.03 5039.34,1251.93 5039.34,1252.23" style="fill:none;stroke:#D7E8BA;stroke-width:7.93px;stroke-linecap:round;stroke-miterlimit:1.5;"/>
            </g>
            <g transform="matrix(1,0,0,1,-535.61,-831.814)">
                <path d="M4998.35,1251.96C4998.36,1252.57 4998.65,1252.2 4998.65,1252.53" style="fill:none;stroke:#D7E8BA;stroke-width:7.93px;stroke-linecap:round;stroke-miterlimit:1.5;"/>
            </g>
            <g transform="matrix(1,0,0,1,-535.61,-831.814)">
                <path d="M5011.78,1266.04C5012.01,1266.13 5011.72,1266.09 5011.62,1266.09" style="fill:none;stroke:#D7E8BA;stroke-width:7.93px;stroke-linecap:round;stroke-miterlimit:1.5;"/>
            </g>
            <g transform="matrix(1,0,0,1,-535.61,-831.814)">
                <path d="M5031.43,1276.41L5031.38,1276.41" style="fill:none;stroke:#D7E8BA;stroke-width:7.93px;stroke-linecap:round;stroke-miterlimit:1.5;"/>
            </g>
        </g>
    </g>
</svg>
