<?xml version="1.0" encoding="UTF-8" standalone="no"?><!DOCTYPE svg PUBLIC "-//W3C//DTD SVG 1.1//EN" "http://www.w3.org/Graphics/SVG/1.1/DTD/svg11.dtd"><svg width="100%" height="100%" viewBox="0 0 500 500" version="1.1" xmlns="http://www.w3.org/2000/svg" xmlns:xlink="http://www.w3.org/1999/xlink" xml:space="preserve" xmlns:serif="http://www.serif.com/" style="fill-rule:evenodd;clip-rule:evenodd;stroke-linejoin:round;stroke-miterlimit:2;"><rect id="fork" x="0" y="0" width="500" height="500" style="fill:none;"/><g id="fork1" serif:id="fork"><path d="M195.259,237.702c-0.791,-0.527 -1.527,-1.164 -2.185,-1.91c-34.042,-38.623 -34.655,-83.239 -2.154,-128.74c11.983,-16.776 24.439,-35.199 38.971,-49.812c0.64,-0.766 2.566,-3.036 3.422,-3.711c2.114,-1.668 4.232,-2.278 5.823,-2.482c3.73,-0.478 6.877,0.644 9.458,3.224c1.078,1.079 2.283,2.696 2.963,5.079c0.491,1.723 0.282,8.614 0.282,8.614c-0,-0 0.014,-0.393 0.014,-0.509c-0,22.992 -5.61,45.723 -9.771,68.742c4.806,-5.4 9.741,-10.645 14.112,-15.745c11.199,-13.065 21.34,-27.587 33.358,-39.605c2.24,-2.24 5.897,-7.453 5.897,-7.453c2.59,-3.631 7.098,-5.364 11.453,-4.404c4.355,0.959 7.716,4.426 8.541,8.809c0,-0 1.078,6.076 1.078,9.145c0,10.535 0.835,21.453 -0.038,31.93c-1.273,15.277 -3.264,30.105 -4.806,44.991c5.21,-4.556 10.505,-8.943 14.747,-13.571c13.894,-15.157 31.963,-32.716 42.292,-48.175c0.682,-1.12 2.636,-4.243 3.84,-5.348c2.676,-2.455 5.642,-3.238 8.136,-3.238c3.583,0 8.202,1.143 10.458,7.315c0.143,0.39 1.028,2.535 0.488,6.096c-0.551,3.63 -4.244,21.837 -4.463,22.932c-2.76,13.797 -4.266,27.907 -8.185,41.625c-15.146,53.01 -54.455,100.201 -114.347,100.201c-1.743,0 -3.394,-0.402 -4.863,-1.118c-0.296,0.612 -0.601,1.224 -0.914,1.835c-4.046,7.889 -9.692,15.716 -12.013,22.68c-14.964,44.89 -34.985,106.003 -75.636,136.492c-22.088,16.566 -47.924,-1.696 -47.924,-23.963c-0,-27.464 12.929,-63.034 25.093,-87.362c12.506,-25.012 30.641,-51.587 40.607,-76.358c1.191,-2.959 3.512,-5.126 6.266,-6.206Zm42.434,-62.413c-0.009,0.667 -0.014,1.34 -0.014,2.014c0,6.141 -4.986,11.128 -11.128,11.128c-6.142,-0 -11.128,-4.987 -11.128,-11.128c0,-28.191 8.047,-55.515 12.013,-82.914c-6.401,8.468 -12.45,17.261 -18.406,25.599c-25.517,35.724 -25.986,70.764 0.74,101.088c4.061,4.607 3.618,11.645 -0.99,15.706c-1.002,0.883 -2.119,1.554 -3.296,2.014c4.302,2.859 6.16,8.44 4.157,13.419c-10.174,25.288 -28.582,52.471 -41.349,78.004c-10.797,21.594 -22.743,53.031 -22.743,77.409c-0,5.722 6.639,10.414 12.314,6.158c37.221,-27.915 54.175,-84.624 67.876,-125.725c2.253,-6.759 6.976,-14.329 11.254,-21.961c2.917,-5.204 5.892,-10.328 5.892,-15.27c-0,-6.142 4.986,-11.128 11.128,-11.128c5.673,-0 10.36,4.254 11.042,9.743c49.129,-0.225 80.086,-40.486 92.535,-84.058c1.936,-6.775 3.236,-13.653 4.402,-20.54c-6.54,7.046 -13.204,13.986 -19.162,20.486c-5.769,6.293 -13.29,12.236 -20.204,18.591c-5.405,4.968 -10.525,10.116 -13.047,16.42c-0.046,0.115 -0.094,0.23 -0.144,0.343l-0.001,0.534c0,6.142 -4.986,11.128 -11.128,11.128c-6.141,0 -11.128,-4.986 -11.128,-11.128c0,-28.648 4.747,-55.657 7.126,-84.196c0.239,-2.871 0.336,-5.777 0.35,-8.701c-7.308,8.718 -14.183,18.004 -21.562,26.612c-9.388,10.953 -21.946,22.416 -28.668,34.927c-1.477,2.749 -3.948,4.627 -6.731,5.426Z" style="fill:#c7eae4;"/></g></svg>