<?xml version="1.0" encoding="UTF-8" standalone="no"?><!DOCTYPE svg PUBLIC "-//W3C//DTD SVG 1.1//EN" "http://www.w3.org/Graphics/SVG/1.1/DTD/svg11.dtd">
<svg width="100%" height="100%" viewBox="0 0 500 500" version="1.1"
  xmlns="http://www.w3.org/2000/svg"
  xmlns:xlink="http://www.w3.org/1999/xlink" xml:space="preserve"
  xmlns:serif="http://www.serif.com/" style="fill-rule:evenodd;clip-rule:evenodd;stroke-linejoin:round;stroke-miterlimit:2;">
  <rect id="home" x="0" y="0" width="500" height="500" style="fill:none;"/>
  <g id="home1" serif:id="home">
    <path d="M103.33,292.231c-6.192,46.227 3.558,76.13 22.403,95.624c27.228,28.163 75.824,34.581 130.157,34.581c12.927,-0 37.605,2.09 58.379,-0.815c17.071,-2.388 31.508,-8.59 38.581,-19.2c11.123,-16.685 13.048,-35.585 11.788,-54.982c-1.083,-16.697 -4.603,-33.744 -4.603,-49.522c-0,-6.142 -4.987,-11.129 -11.128,-11.129c-6.142,0 -11.129,4.987 -11.129,11.129c0,16.235 3.536,33.784 4.651,50.964c0.94,14.482 0.208,28.738 -8.097,41.194c-4.107,6.161 -13.234,8.118 -23.146,9.504c-19.676,2.752 -43.052,0.601 -55.296,0.601c-24.59,-0 -47.961,-1.108 -68.261,-5.46c-18.631,-3.994 -34.584,-10.636 -45.894,-22.334c-15.142,-15.663 -21.321,-40.058 -16.346,-77.2c0.815,-6.088 -3.465,-11.692 -9.553,-12.507c-6.087,-0.815 -11.691,3.465 -12.506,9.552Zm82.031,-21.509c0.076,-4.945 3.469,-9.413 8.496,-10.637c7.887,-1.92 17.632,-1.898 27.856,-0.983c8.871,0.793 18.16,2.259 26.605,3.109c3.959,-3.32 9.774,-2.507 11.65,-1.756c2.039,0.816 3.704,2.169 4.897,3.83c3.399,1.906 5.697,5.543 5.697,9.713c-0,3.145 -1.308,5.987 -3.409,8.013c0.344,7.028 0.751,15.606 0.751,16.791c0,13.482 2.203,26.377 3.773,39.367c5.409,-0.083 10.219,3.801 11.136,9.298c1.009,6.059 -3.089,11.797 -9.148,12.807c-0.146,0.024 -0.296,0.048 -0.453,0.071c-0.221,5.949 -5.119,10.71 -11.121,10.71c-5.638,0 -10.302,-4.202 -11.029,-9.642c-3.069,0.053 -6.269,0.098 -9.513,0.146c-2.04,2.548 -5.176,4.181 -8.691,4.181c-3.347,0 -6.35,-1.48 -8.392,-3.822c-3.593,0.114 -7.042,0.26 -10.221,0.457c-4.828,0.3 -10.879,1.304 -11.911,1.48c-4.845,2.844 -11.161,1.628 -14.573,-2.99c-2.914,-3.944 -2.834,-9.184 -0.169,-12.994c-0.268,-0.956 -0.411,-1.963 -0.411,-3.003c-0,-23.319 -6.122,-49.485 -2.255,-72.416c0.1,-0.596 0.247,-1.174 0.435,-1.73Zm32.437,56.63c-0.243,0.042 -0.484,0.084 -0.724,0.126c-1.924,0.34 -5.287,0.926 -8.46,1.42c0.343,3.887 0.617,7.734 0.745,11.516c1.131,-0.093 2.303,-0.177 3.509,-0.252c2.308,-0.143 4.764,-0.256 7.315,-0.346c-0.67,-3.973 -1.504,-8.176 -2.385,-12.464Zm22.212,-1.838c0.943,4.791 1.824,9.481 2.515,13.892c2.402,-0.026 4.76,-0.052 7.033,-0.084c-0.511,-4.348 -1.103,-8.683 -1.67,-13.033c-2.555,-0.434 -5.197,-0.679 -7.878,-0.775Zm10.441,-165.015c-18.114,17.179 -87.948,59.919 -131.062,92.871c-10.583,8.089 -19.476,15.522 -25.294,21.779c-2.494,2.682 -4.49,4.753 -4.993,6.63c-1.591,5.933 -7.698,9.458 -13.63,7.868c-5.932,-1.591 -9.458,-7.698 -7.867,-13.63c0.926,-3.457 3.161,-7.684 6.924,-12.291c6.26,-7.664 17.447,-17.416 31.345,-28.038c43.076,-32.925 113.493,-75.556 129.745,-91.808c4.343,-4.343 11.395,-4.343 15.738,-0c3.436,3.436 4.153,8.567 2.152,12.711c4.4,-3.58 10.892,-3.289 14.949,0.836c19.677,20.005 93.096,83.611 121.687,116.441c5.792,6.651 9.887,12.289 11.886,16.299c1.717,3.442 2.297,6.407 2.297,8.635c-0,6.142 -4.986,11.128 -11.128,11.128c-5.647,0 -10.317,-4.214 -11.03,-9.668c-0.42,-0.719 -1.975,-3.327 -3.497,-5.324c-4.039,-5.3 -10.136,-12.004 -17.479,-19.557c-33.333,-34.284 -91.461,-84.92 -108.603,-102.348c-3.354,-3.41 -4.06,-8.441 -2.14,-12.534Zm-38.901,120.209c-1.821,-0.052 -3.596,-0.046 -5.307,0.04c-0.892,8.353 -0.537,17.084 0.201,25.887c2.622,-0.4 5.391,-0.832 6.763,-1.074l0.259,-0.046c-1.583,-9.296 -2.382,-17.933 -1.916,-24.807Zm21.963,2.116c-0.49,5.236 0.722,12.358 2.093,20.107l0.061,0.341c3.389,-0.055 6.766,0.043 10.071,0.334c-0.058,-1.591 -0.09,-3.193 -0.09,-4.804c0,-1.177 -0.426,-7.916 -0.765,-14.624c-3.696,-0.396 -7.515,-0.875 -11.37,-1.354Z" style="fill:#f3de8a"/>
  </g>
</svg>