<?xml version="1.0" encoding="UTF-8" standalone="no"?><!DOCTYPE svg PUBLIC "-//W3C//DTD SVG 1.1//EN" "http://www.w3.org/Graphics/SVG/1.1/DTD/svg11.dtd">
<svg width="100%" height="100%" viewBox="0 0 500 500" version="1.1"
  xmlns="http://www.w3.org/2000/svg"
  xmlns:xlink="http://www.w3.org/1999/xlink" xml:space="preserve"
  xmlns:serif="http://www.serif.com/" style="fill-rule:evenodd;clip-rule:evenodd;stroke-linejoin:round;stroke-miterlimit:2;">
  <rect id="mountain" x="0" y="0" width="500" height="500" style="fill:none;"/>
  <g id="mountain1" serif:id="mountain">
    <path d="M73.779,341.178c2.349,-10.367 4.92,-19.342 8.344,-26.298c2.399,-4.874 4.958,-8.689 8.785,-10.357c5.596,-2.438 12.631,-0.066 22.545,5.6c4.946,2.826 10.041,5.261 14.815,8.053c5.386,3.151 10.412,6.715 13.53,12.952c2.747,5.493 9.437,7.723 14.93,4.976c5.493,-2.746 7.723,-9.436 4.977,-14.929c-8.022,-16.045 -22.853,-22.172 -37.21,-30.376c-18.352,-10.487 -32.12,-11.193 -42.479,-6.679c-6.72,2.929 -12.394,8.189 -17.013,15.736c-5.44,8.886 -9.527,21.386 -12.93,36.405c-1.357,5.989 2.404,11.954 8.394,13.311c5.99,1.357 11.955,-2.404 13.312,-8.394Zm309.319,-101.104c-16.164,-22.459 -36.209,-55.295 -44.32,-65.618c-12.702,-16.166 -33.521,-29.655 -50.575,-41.024c-12.403,-8.268 -23.969,-11.619 -34.789,-10.939c-16.657,1.045 -31.156,11.309 -43.821,25.127c-23.583,25.731 -40.517,64.013 -50.041,90.204c-1.893,5.206 -5.107,11.881 -7.821,18.573c-2.019,4.977 -3.972,9.885 -3.86,13.821c0.175,6.139 -4.667,11.266 -10.806,11.441c-6.139,0.175 -11.266,-4.667 -11.441,-10.806c-0.152,-5.331 1.372,-11.854 3.826,-18.545c2.861,-7.801 6.963,-15.977 9.186,-22.09c10.326,-28.396 28.981,-69.739 54.55,-97.636c16.828,-18.36 36.701,-30.912 58.833,-32.302c15.039,-0.944 31.291,3.141 48.53,14.634c18.889,12.593 41.661,27.886 55.729,45.792c8.117,10.329 28.109,42.989 44.347,65.623c5.714,-3.925 11.492,-7.367 17.225,-10.234c4.045,-2.022 11.694,-2.737 21.024,-1.055c15.746,2.839 37.998,11.33 48.625,17.589c4.037,2.378 6.79,4.778 8.186,6.553c2.304,2.928 2.939,5.813 2.939,8.127c-0,6.142 -4.987,11.128 -11.129,11.128c-4.012,-0 -7.531,-2.128 -9.488,-5.317c-4.013,-1.927 -27.22,-12.897 -40.992,-15.769c-3.695,-0.771 -8.85,-1.007 -9.811,-1.044c-4.223,2.143 -8.474,4.64 -12.691,7.441c0.677,0.728 1.235,1.311 1.774,1.58c5.494,2.747 7.724,9.437 4.977,14.93c-2.747,5.494 -9.436,7.724 -14.93,4.977c-2.357,-1.179 -5.598,-3.935 -9.352,-7.913c-19.369,17.24 -35.926,39.95 -42.658,62.466c-1.76,5.884 -7.965,9.233 -13.85,7.474c-5.884,-1.759 -9.233,-7.965 -7.474,-13.849c7.902,-26.43 27.364,-53.202 50.098,-73.339Z" style="fill:#c7eae4;"/>
  </g>
</svg>