<?xml version="1.0" encoding="UTF-8" standalone="no"?><!DOCTYPE svg PUBLIC "-//W3C//DTD SVG 1.1//EN" "http://www.w3.org/Graphics/SVG/1.1/DTD/svg11.dtd">
<svg width="100%" height="100%" viewBox="0 0 500 500" version="1.1"
  xmlns="http://www.w3.org/2000/svg"
  xmlns:xlink="http://www.w3.org/1999/xlink" xml:space="preserve"
  xmlns:serif="http://www.serif.com/" style="fill-rule:evenodd;clip-rule:evenodd;stroke-linejoin:round;stroke-miterlimit:2;">
  <rect id="sunglasses" x="0" y="0" width="500" height="500" style="fill:none;"/>
  <g id="sunglasses1" serif:id="sunglasses">
    <path d="M31.432,301.188c-0.206,-1.398 -0.147,-2.857 0.216,-4.312c1.277,-5.107 7.546,-12.889 17.371,-20.352c16.9,-12.838 44.311,-27.781 51.384,-32.357c67.443,-43.64 139.736,-87.785 218.809,-106.033c6.858,-1.582 53.754,-13.204 74.935,-15.112c5.076,-0.457 9.073,-0.316 11.511,0.193c1.87,0.39 3.396,1.022 4.631,1.747c4.725,0.791 8.577,4.599 9.202,9.594c0.21,1.673 1.606,3.74 2.854,6.175c2.229,4.344 4.678,9.139 6.161,13.823c3.055,9.649 2.297,18.892 -5.021,26.211c-2.111,2.11 -4.952,3.78 -8.125,5.163c-0.671,0.292 -1.41,0.497 -2.117,0.74c0.85,4.286 -0.883,8.86 -4.742,11.433c-4.457,2.971 -5.148,8.909 -5.691,15.634c-0.826,10.216 0.199,22.26 0.625,34.09c0.492,13.661 0.14,27.056 -3.342,37.857c-4.301,13.345 -12.822,23.37 -28.729,27.346c-59.905,14.977 -78.066,-10.459 -120.491,-38.743c-3.878,-2.585 -9.171,-5.229 -14.08,-5.662c-1.714,-0.151 -3.457,0.064 -4.181,2.017c-1.541,4.155 -5.308,6.844 -9.448,7.216c-7.878,14.948 -0.521,24.214 2.373,34.509c3.355,11.935 4.143,24.823 -9.198,42.61c-3.798,5.065 -11.278,10.085 -21.251,13.847c-19.125,7.214 -48.093,10.826 -68.344,7.886c-8.926,-1.296 -16.341,-3.948 -21.342,-7.558c-3.475,-2.508 -6.021,-5.5 -7.636,-8.891c-3.191,0.304 -6.489,-0.765 -8.931,-3.207c-6.93,-6.929 -12.344,-17.091 -20.069,-22.884c-2.592,-1.944 -5.948,-1.17 -9.168,-0.899c-4.469,0.375 -8.916,0.931 -12.913,0.751c-5.342,-0.241 -10.091,-1.667 -14.046,-4.654c-3.872,-2.926 -7.264,-7.441 -9.01,-14.951c-1.351,-5.808 2.123,-11.621 7.803,-13.227Zm368.503,-156.225c-15.901,-0.259 -68.61,13.217 -75.719,14.858c-76.573,17.67 -146.411,60.771 -211.723,103.032c-6.877,4.45 -33.577,18.91 -50.012,31.394c-4.094,3.11 -8.927,8.152 -9.427,8.677c-1.143,3.638 -4.023,6.313 -7.483,7.331c0.194,0.546 0.416,1.056 0.527,1.3c0.407,0.071 1.472,0.238 2.134,0.247c2.331,0.031 4.837,-0.274 7.387,-0.519c9.374,-0.9 18.92,-0.606 26.5,5.08c8.519,6.389 14.811,17.31 22.453,24.952c0.307,0.307 0.593,0.628 0.856,0.959c5.646,-0.847 11.066,2.75 12.442,8.337c0.192,0.168 0.739,0.633 1.127,0.866c0.841,0.506 1.812,0.933 2.877,1.318c5.013,1.812 11.65,2.577 18.902,2.695c14.335,0.234 30.924,-2.243 43.532,-6.454c6.468,-2.161 11.901,-4.314 14.227,-7.415c12.212,-16.283 4.33,-25.788 1.077,-36.849c-3.501,-11.906 -4.745,-25.006 7.425,-43.261c1.856,-2.784 4.754,-4.462 7.834,-4.861c5.545,-8.372 14.279,-11.042 23.875,-10.197c8.47,0.746 17.781,4.853 24.472,9.314c11.923,7.949 21.769,15.76 31.221,22.43c19.41,13.697 36.953,21.883 71.527,13.24c9.054,-2.264 12.559,-9.091 14.144,-17.354c1.475,-7.694 1.406,-16.512 1.083,-25.457c-0.56,-15.556 -1.836,-31.451 0.32,-43.817c1.618,-9.282 5.118,-16.874 10.876,-22.248c-0.861,-3.632 0.125,-7.615 2.956,-10.447c2.272,-2.272 5.18,-3.991 8.297,-5.375l4.272,-1.925c0.406,-0.652 -0.08,-1.471 -0.271,-2.275c-0.342,-1.435 -0.897,-2.888 -1.522,-4.337c-1.989,-4.612 -4.395,-9.206 -6.186,-13.239Z" style="fill:#c7eae4;"/>
  </g>
</svg>