<?xml version="1.0" encoding="UTF-8" standalone="no"?><!DOCTYPE svg PUBLIC "-//W3C//DTD SVG 1.1//EN" "http://www.w3.org/Graphics/SVG/1.1/DTD/svg11.dtd">
<svg width="100%" height="100%" viewBox="0 0 500 500" version="1.1"
  xmlns="http://www.w3.org/2000/svg"
  xmlns:xlink="http://www.w3.org/1999/xlink" xml:space="preserve"
  xmlns:serif="http://www.serif.com/" style="fill-rule:evenodd;clip-rule:evenodd;stroke-linejoin:round;stroke-miterlimit:2;">
  <rect id="sunny" x="0" y="0" width="500" height="500" style="fill:none;"/>
  <clipPath id="_clip1">
    <rect id="sunny1" serif:id="sunny" x="0" y="0" width="500" height="500"/>
  </clipPath>
  <g clip-path="url(#_clip1)">
    <path d="M257.976,430.811c-0.579,9.667 2.288,17.949 5.988,26.042c2.578,5.637 5.702,11.127 6.863,17.513c1.099,6.042 6.896,10.056 12.939,8.957c6.043,-1.098 10.057,-6.896 8.958,-12.939c-1.242,-6.829 -3.928,-12.98 -6.758,-19.011c-2.862,-6.099 -6.21,-11.949 -5.774,-19.232c0.367,-6.131 -4.312,-11.406 -10.443,-11.773c-6.131,-0.367 -11.406,4.312 -11.773,10.443Zm-216.901,-43.017c1.596,-1 6.692,-4.194 7.987,-5.041c11.107,-7.263 22.519,-14.799 34.223,-21.041c5.419,-2.89 12.165,-0.837 15.056,4.582c2.89,5.419 0.837,12.166 -4.582,15.056c-11.127,5.934 -21.959,13.127 -32.518,20.03c-2.135,1.397 -7.55,5.376 -11.96,7.207c-4.711,1.956 -9.099,1.898 -12.141,0.807c-5.781,-2.074 -8.791,-8.452 -6.717,-14.233c1.65,-4.598 6.022,-7.443 10.652,-7.367Zm66.151,-175.877c-8.652,18.768 -15.61,46.263 -12.866,66.842c7.681,57.607 63.345,100.645 118.782,104.605c73.136,5.224 146.856,-34.528 189.787,-92.485c24.509,-33.086 18.84,-60.18 8.748,-96.511c-12.343,-44.432 -52.158,-96.561 -97.866,-111.385c-60.268,-19.546 -124.969,1.613 -170.112,43.096c-4.522,4.156 -4.82,11.201 -0.664,15.723c4.155,4.523 11.201,4.82 15.723,0.665c39.374,-36.182 95.621,-55.362 148.187,-38.313c39.219,12.719 72.697,58.046 83.287,96.17c8.069,29.049 14.409,50.854 -5.187,77.308c-38.574,52.075 -104.603,88.227 -170.317,83.533c-45.599,-3.257 -91.989,-37.964 -98.307,-85.348c-2.245,-16.834 3.94,-39.23 11.017,-54.583c2.571,-5.578 0.13,-12.194 -5.448,-14.765c-5.578,-2.571 -12.193,-0.13 -14.764,5.448Zm318.83,128.262c12.402,7.02 25.894,11.765 38.232,18.962c5.305,3.095 12.125,1.3 15.219,-4.005c3.095,-5.305 1.3,-12.125 -4.005,-15.219c-12.421,-7.246 -25.997,-12.04 -38.483,-19.107c-5.345,-3.025 -12.141,-1.142 -15.166,4.203c-3.025,5.345 -1.142,12.141 4.203,15.166Zm-150.618,-100.247c0.61,-1.512 1.393,-3.366 1.707,-3.782c1.677,-2.219 3.631,-3.276 5.236,-3.844c3.927,-1.392 7.935,-1.085 11.664,2.643c3.818,3.819 4.279,9.732 1.381,14.054c-0.892,1.971 -2.195,4.697 -2.848,5.35c-3.119,3.119 -7.67,6.674 -11.693,8.686c-2.424,1.212 -7.375,2.139 -12.982,1.616c-6.749,-0.629 -14.387,-3.167 -17.823,-5.868c-5.564,-4.373 -6.536,-9.841 -4.667,-15.002c2.091,-5.775 8.477,-8.766 14.252,-6.675c2.283,0.827 4.131,2.324 5.399,4.192l6.996,1.188c1.162,-0.716 2.337,-1.635 3.378,-2.558Zm-67.384,-2.231c0.173,0.465 0.323,0.941 0.451,1.424c1.75,6.625 -0.636,13.85 -7.562,17.313c-8.499,4.249 -16.663,0.101 -20.316,-6.997c-3.735,-7.256 -2.15,-16.371 6.329,-20.61c1.799,-0.9 5.105,-1.702 8.556,-1.308c3.145,0.358 6.225,1.675 8.152,3.221c2.222,1.785 3.589,4.015 4.247,6.391c0.051,0.187 0.1,0.375 0.143,0.566Zm81.563,15.697c-1.926,0.625 -3.989,0.712 -5.952,0.26c-1.964,-0.452 -3.829,-1.443 -5.358,-2.972c3.642,3.642 7.456,4.187 11.31,2.712Zm-23.121,-2.506l-0.157,0.47c0.057,-0.157 0.11,-0.313 0.157,-0.47Zm-223.096,-74.687c-5.035,1.703 -10.525,1.931 -16.014,2.429c-7.583,0.688 -15.159,1.736 -22.225,4.876c-5.613,2.495 -8.144,9.076 -5.65,14.689c2.495,5.612 9.076,8.143 14.689,5.649c4.814,-2.139 10.032,-2.58 15.198,-3.049c7.261,-0.659 14.474,-1.259 21.135,-3.512c5.817,-1.968 8.943,-8.289 6.974,-14.107c-1.968,-5.818 -8.289,-8.943 -14.107,-6.975Zm281.401,-1.897c3.424,-2.059 7.329,-2.765 11.072,-1.934c3.607,0.801 7.651,2.941 10.495,8.628c2.243,4.487 1.853,8.379 0.53,11.565c-1.594,3.839 -5.24,7.144 -10.088,8.429c-3.522,0.932 -7.502,0.653 -10.617,-0.503c-3.035,-0.605 -5.126,-2.147 -6.63,-3.793c-2.723,-2.981 -4.259,-7.572 -2.496,-12.876c0.361,-1.085 0.913,-2.235 1.625,-3.37c0.114,-0.258 0.236,-0.505 0.368,-0.738c1.442,-2.556 3.372,-4.396 5.741,-5.408Zm112.687,-57.218c-0.273,-4.042 2.114,-7.292 4.445,-10.609c4.227,-6.015 9.174,-11.867 12.057,-18.209c2.541,-5.591 0.065,-12.194 -5.526,-14.735c-5.591,-2.541 -12.194,-0.065 -14.736,5.526c-2.953,6.497 -8.711,12.21 -12.571,18.507c-3.953,6.45 -6.393,13.329 -5.874,21.02c0.414,6.128 5.725,10.767 11.852,10.353c6.128,-0.414 10.767,-5.725 10.353,-11.853Zm-238.213,-77.954c-9.003,-9.501 -17.66,-22.207 -29.502,-28.128c-5.493,-2.747 -12.183,-0.517 -14.93,4.976c-2.746,5.494 -0.516,12.184 4.977,14.93c9.62,4.81 15.986,15.813 23.3,23.531c4.225,4.458 11.274,4.648 15.732,0.423c4.458,-4.224 4.648,-11.274 0.423,-15.732Z" style="fill:#F54055"/>
  </g>
</svg>