<?xml version="1.0" encoding="UTF-8" standalone="no"?><!DOCTYPE svg PUBLIC "-//W3C//DTD SVG 1.1//EN" "http://www.w3.org/Graphics/SVG/1.1/DTD/svg11.dtd">
<svg width="100%" height="100%" viewBox="0 0 500 500" version="1.1"
  xmlns="http://www.w3.org/2000/svg"
  xmlns:xlink="http://www.w3.org/1999/xlink" xml:space="preserve"
  xmlns:serif="http://www.serif.com/" style="fill-rule:evenodd;clip-rule:evenodd;stroke-linejoin:round;stroke-miterlimit:2;">
  <rect id="yay" x="0" y="0" width="500" height="500" style="fill:none;"/>
  <g id="yay1" serif:id="yay">
    <path d="M33.316,248.753c1.416,1.376 2.134,3.75 2.91,6.548c1.908,6.879 2.698,15.926 2.972,25.728c0.752,26.937 -2.631,59.126 -2.631,72.634c0,6.142 4.987,11.128 11.128,11.128c6.142,0 11.128,-4.986 11.128,-11.128c0,-16.02 4.586,-57.892 1.82,-86.974c-1.488,-15.632 -5.72,-27.976 -11.821,-33.901c-4.406,-4.279 -11.457,-4.176 -15.736,0.229c-4.279,4.406 -4.176,11.457 0.23,15.736Zm226.357,92.917c1.61,-4.157 5.651,-7.108 10.375,-7.108c6.142,0 11.128,4.987 11.128,11.128c0,11.15 -8.212,17.867 -20.416,18.648c-7.864,0.502 -17.29,-1.74 -22.957,-4.803c-4.607,-2.489 -7.351,-5.864 -8.527,-8.716c-2.342,-5.678 0.367,-12.189 6.045,-14.53c4.765,-1.965 10.117,-0.373 13.097,3.547l11.255,1.834Zm-77.68,-7.505c0.852,-5.297 5.449,-9.347 10.985,-9.347c6.141,-0 11.128,4.986 11.128,11.128c-0,-0.761 -0.132,-1.387 -0.132,-1.387c0,0 -0.345,6.166 -1.32,7.834c-0.615,1.055 -1.445,3.1 -5.677,4.826c-5.687,2.319 -12.187,-0.415 -14.507,-6.102c-0.936,-2.294 -1.049,-4.721 -0.477,-6.952Zm-47.267,0.379c-4.109,1.884 -9.132,1.136 -12.514,-2.246c-4.909,-4.909 -11.864,-18.66 -18.536,-34.546c-7.946,-18.916 -20.093,-47.153 -21.864,-51.265c-2.804,-2.105 -4.572,-5.498 -4.448,-9.264c0.201,-6.139 5.348,-10.959 11.486,-10.758c2.155,0.07 4.756,0.698 7.379,2.786c1.848,1.471 4.831,5.351 7.776,11.42c6.662,13.731 16.961,42.23 25.88,61.439c3.09,6.654 5.7,12.087 8.065,14.451c0.756,0.756 1.38,1.594 1.873,2.485c7.715,-15.149 22.678,-29.177 41.234,-40.276c34.321,-20.527 80.214,-31.123 106.75,-24.489c3.91,0.977 7.526,2.73 10.995,4.775c3.133,1.847 6.038,4.116 9.314,5.208c8.547,2.849 32.168,12.337 45.597,22.437c8.868,6.669 13.392,14.539 13.392,20.897c0,6.142 -4.986,11.128 -11.128,11.128c-5.708,0 -10.418,-4.307 -11.052,-9.846c-0.947,-0.91 -5.632,-5.328 -9.612,-7.786c-11.812,-7.295 -27.86,-13.591 -34.235,-15.716c-3.447,-1.149 -6.723,-2.954 -9.965,-4.941c-2.797,-1.715 -5.499,-3.763 -8.704,-4.565c-22.431,-5.607 -60.916,4.647 -89.928,21.999c-18.039,10.789 -32.816,24.157 -35.712,39.38c-1.148,6.033 -6.978,10 -13.012,8.852c-5.547,-1.056 -9.347,-6.069 -9.031,-11.559Zm161.444,-14.612c0.481,-5.695 5.264,-10.174 11.085,-10.174c6.141,0 11.128,4.986 11.128,11.128c-0,-1.033 -0.242,-1.939 -0.242,-1.939c-0,0 -1.62,9.522 -3.349,11.078c-0.902,0.813 -2.762,2.875 -7.648,2.875c-6.142,0 -11.128,-4.986 -11.128,-11.128c-0,-0.627 0.052,-1.242 0.154,-1.84Zm-111.907,9.816c0.562,-0.67 1.206,-1.278 1.927,-1.806c0.72,-0.529 1.517,-0.978 2.381,-1.331c-2.461,1.004 -3.635,2.169 -4.308,3.137Zm122.278,-19.087c-1.403,0.055 -2.518,0.306 -3.411,0.643c-0.893,0.337 -1.565,0.761 -2.081,1.161c1.593,-1.048 3.471,-1.697 5.492,-1.804Zm64.222,-109.957c-3.26,-4.297 -2.993,-10.453 0.87,-14.451c4.268,-4.417 11.319,-4.538 15.736,-0.27c1.741,1.683 4.541,6.545 6.564,14.156c5.141,19.342 11.118,62.899 12.812,83.39c0.643,7.775 0.316,13.093 -0.099,14.524c-0.726,2.508 -1.97,4.046 -2.936,5.012c-4.343,4.343 -11.394,4.343 -15.737,-0c-2.788,-2.788 -3.787,-6.693 -2.992,-10.28l0.002,-0.561c-0.229,-11.363 -5.148,-50.819 -10.083,-75.437c-1.37,-6.834 -3.746,-14.795 -4.137,-16.083Zm52.31,4.071c3.361,4.465 3.772,10.926 4.422,17.427c0.98,9.793 1.757,19.821 5.025,27.665c3.487,8.369 9.046,16.429 14.489,24.365c4.388,6.398 8.748,12.661 10.917,19.168c1.942,5.826 8.249,8.98 14.076,7.038c5.826,-1.942 8.98,-8.25 7.038,-14.076c-2.778,-8.333 -8.058,-16.524 -13.676,-24.717c-4.563,-6.654 -9.376,-13.321 -12.3,-20.338c-3.134,-7.521 -2.823,-17.653 -4.056,-26.84c-1.182,-8.796 -3.504,-16.9 -8.153,-23.076c-3.693,-4.907 -10.675,-5.893 -15.583,-2.199c-4.907,3.693 -5.892,10.676 -2.199,15.583Zm-335.46,43.904c0.085,0.008 0.171,0.014 0.255,0.019c0.085,0.005 0.17,0.008 0.254,0.011l-0.509,-0.03Zm-0.424,-0.041l0.127,0.012l-0.164,-0.018l0.037,0.006Zm-62.409,-27.525c-0.541,-0.423 -3.217,-2.533 -4.543,-3.825c-2.016,-1.965 -3.771,-4.309 -5.021,-7.432c-11.925,-29.813 5.275,-55.813 33.39,-65.184c13.179,-4.393 28.183,-8.422 41.87,-3.445c13.724,4.991 25.882,16.003 31.863,28.508c6.82,14.259 6.205,30.23 -6.536,42.971c-4.343,4.343 -11.395,4.343 -15.737,0c-4.343,-4.343 -4.343,-11.394 -0,-15.737c5.208,-5.208 4.983,-11.802 2.195,-17.631c-3.626,-7.58 -11.072,-14.17 -19.39,-17.195c-8.95,-3.254 -18.61,0.77 -27.227,3.643c-15.626,5.208 -26.322,19.026 -19.854,35.57c0.208,0.181 0.725,0.628 1.02,0.859c0.929,0.726 1.855,1.441 2.728,2.22c2.059,1.839 3.842,3.979 5.163,6.769c2.628,5.551 0.256,12.191 -5.295,14.82c-5.421,2.566 -11.88,0.364 -14.626,-4.911Zm339.827,-62.36c4.325,0.176 8.337,2.883 9.964,7.184c2.172,5.745 -0.728,12.173 -6.472,14.345c-3.277,1.239 -6.807,1.359 -10.425,0.206c-4.491,-1.431 -9.746,-5.518 -13.587,-12.168c-5.723,-9.906 -8.757,-25.807 -2.287,-40.574c4.152,-9.476 12.16,-18.695 26.404,-25.169c10.749,-4.886 24.243,-5.834 37.968,-3.399c19.388,3.439 39.141,13.574 51.257,26.524c9.528,10.185 14.462,22.136 13.059,34.162c-0.947,8.115 -4.74,16.495 -12.74,24.494c-4.343,4.343 -11.394,4.343 -15.737,0c-4.343,-4.342 -4.343,-11.394 -0,-15.737c3.768,-3.768 5.925,-7.514 6.371,-11.337c0.686,-5.883 -2.544,-11.394 -7.206,-16.377c-9.163,-9.795 -24.228,-17.214 -38.891,-19.815c-8.977,-1.593 -17.841,-1.45 -24.871,1.746c-16.659,7.572 -18.831,21.147 -15.784,30.421c0.637,1.937 2.123,4.255 2.977,5.494Z" style="fill:#86BBD8"/>
  </g>
</svg>